PathFileType	4	(X/Y/Z)	c:/Users/goper/Files/vsCode/490R/osim_files/C17/C17_Static.trc
DataRate	CameraRate	NumFrames	NumMarkers	Units                	OrigDataRate	OrigDataStartFrame	OrigNumFrames
250.00	250.00	4	36	mm	250.0	2036	3257
                Frame#	Time	LPSIS			LASIS			LTH1			LTH2			LTH3			LTH4			LLFE			LMFE			LSH1			LSH2			LSH3			LSH4			LLMAL			LMMAL			LCAL			LMTP5			LTOE			LMTP1			RPSIS			RASIS			RTH1			RTH2			RTH3			RTH4			RLFE			RMFE			RSH1			RSH2			RSH3			RSH4			RLMAL			RMMAL			RCAL			RMTP1			RTOE			RMTP5		
		X1	Y1	Z1	X2	Y2	Z2	X3	Y3	Z3	X4	Y4	Z4	X5	Y5	Z5	X6	Y6	Z6	X7	Y7	Z7	X8	Y8	Z8	X9	Y9	Z9	X10	Y10	Z10	X11	Y11	Z11	X12	Y12	Z12	X13	Y13	Z13	X14	Y14	Z14	X15	Y15	Z15	X16	Y16	Z16	X17	Y17	Z17	X18	Y18	Z18	X19	Y19	Z19	X20	Y20	Z20	X21	Y21	Z21	X22	Y22	Z22	X23	Y23	Z23	X24	Y24	Z24	X25	Y25	Z25	X26	Y26	Z26	X27	Y27	Z27	X28	Y28	Z28	X29	Y29	Z29	X30	Y30	Z30	X31	Y31	Z31	X32	Y32	Z32	X33	Y33	Z33	X34	Y34	Z34	X35	Y35	Z35	X36	Y36	Z36

2036	8.14000	-323.09726	1078.90967	401.19370	-110.87999	1032.61182	312.64838	-213.12503	754.22760	261.12299	-211.14429	709.83917	261.39313	-151.07388	752.46466	260.13925	-157.01093	708.10663	260.73370	-214.50731	514.26257	278.63748	-212.88759	504.31741	401.24588	-281.80817	289.04767	262.34048	-280.24371	245.74330	260.60953	-219.13928	284.22409	255.85841	-227.95697	240.87408	256.91211	-260.81110	97.58778	266.74167	-246.89677	97.40667	352.75964	-333.22717	53.92352	308.76407	-143.37064	41.11857	235.91464	-83.27884	59.21595	302.94754	-101.16994	40.75821	352.51181	-325.82523	1070.61780	475.07642	-137.23972	1041.88904	593.36078	-218.14345	783.08490	655.90991	-220.44194	736.68268	652.23993	-158.63844	775.73425	651.70789	-168.41571	729.21918	652.52582	-215.25966	507.26910	652.61780	-220.43350	502.69620	526.60187	-296.49020	327.82040	676.95325	-294.20096	282.03317	673.51550	-234.82179	323.16168	681.53577	-242.18787	276.33401	678.54047	-272.62186	89.31912	666.05823	-245.86786	101.61951	579.77197	-339.66302	50.17284	629.23956	-106.83507	42.05917	578.46918	-90.65559	63.30174	624.58704	-142.33897	35.70794	696.44641
2037	8.14400	-323.05972	1078.92029	401.15118	-110.88364	1032.62073	312.66589	-213.12964	754.22211	261.14484	-211.14557	709.84930	261.37320	-151.08078	752.42230	260.14761	-157.02486	708.09467	260.73608	-214.52069	514.25330	278.63153	-212.90598	504.30276	401.26407	-281.83411	289.04733	262.33548	-280.24100	245.73766	260.60074	-219.14395	284.22318	255.87700	-227.97372	240.86591	256.92801	-260.81873	97.59448	266.74747	-246.91193	97.40123	352.74606	-333.25656	53.90221	308.78333	-143.40668	41.10298	235.92239	-83.28427	59.20197	302.96332	-101.19755	40.76455	352.51532	-325.83923	1070.63232	475.08258	-137.32030	1041.85303	593.35956	-218.15793	783.06293	655.91473	-220.45844	736.65808	652.27094	-158.70598	775.73578	651.77869	-168.47307	729.19818	652.55164	-215.28102	507.25418	652.62512	-220.44217	502.69916	526.47900	-296.52011	327.81116	676.94312	-294.22144	282.00009	673.52094	-234.88052	323.14700	681.56055	-242.21460	276.30197	678.57654	-272.68729	89.29084	666.04388	-245.90244	101.60461	579.78723	-339.65784	50.15046	629.25397	-106.82246	42.08699	578.46326	-90.66080	63.32944	624.58978	-142.37843	35.68623	696.45392
2038	8.14800	-323.07797	1078.94336	401.16422	-110.87776	1032.61780	312.67770	-213.13820	754.22729	261.14685	-211.13815	709.82501	261.37146	-151.03369	752.42395	260.17694	-157.01825	708.11920	260.74756	-214.54517	514.24573	278.64618	-212.95639	504.28870	401.25604	-281.86127	289.03635	262.36014	-280.26630	245.73665	260.61053	-219.12996	284.23334	255.86603	-227.97122	240.86829	256.92084	-260.82663	97.58757	266.75018	-246.78996	97.57291	352.64825	-333.26361	53.87813	308.76981	-143.42070	41.08912	235.94562	-83.30861	59.20009	302.96805	-101.23986	40.72759	352.52573	-325.79089	1070.64636	475.08093	-137.34958	1041.82629	593.36938	-218.20752	783.03162	655.92487	-220.48625	736.64062	652.27722	-158.73715	775.74243	651.80859	-168.48718	729.20465	652.57953	-215.29893	507.24521	652.63831	-220.43651	502.71609	526.45392	-296.53824	327.79724	676.95563	-294.25186	281.94708	673.52924	-234.90367	323.12347	681.57996	-242.20724	276.31314	678.60663	-272.72009	89.26519	666.04700	-245.90320	101.61057	579.78937	-339.67938	50.12962	629.26202	-106.88866	42.04137	578.47174	-90.67526	63.32040	624.60248	-142.26382	35.79786	696.53583
2039	8.15200	-323.09879	1078.94055	401.16971	-110.86128	1032.62634	312.68378	-213.14386	754.19507	261.15790	-211.15106	709.83002	261.38907	-151.04050	752.43811	260.15646	-157.00568	708.11707	260.75690	-214.52521	514.26550	278.65878	-212.93698	504.28452	401.26346	-281.87653	289.03677	262.37137	-280.26218	245.72714	260.61615	-219.12695	284.24878	255.87332	-227.99001	240.86182	256.92886	-260.84616	97.60020	266.75140	-246.93742	97.36736	352.78723	-333.25546	53.86141	308.79953	-143.42998	41.06640	235.95908	-83.31558	59.18768	302.97968	-101.26116	40.70732	352.53632	-325.85898	1070.65417	475.09634	-137.31277	1041.82373	593.39026	-218.21411	782.98322	655.94379	-220.46277	736.61041	652.32684	-158.74998	775.71045	651.84839	-168.49666	729.17639	652.60083	-215.32608	507.20886	652.64252	-220.41495	502.74289	526.46606	-296.53275	327.76193	676.96564	-294.26587	281.89020	673.55127	-234.89806	323.13083	681.58112	-242.25812	276.24783	678.55884	-272.74908	89.21892	666.06311	-245.92046	101.59501	579.78613	-339.68530	50.10655	629.27264	-106.87849	42.06579	578.47198	-90.67471	63.32515	624.60010	-142.27794	35.78881	696.56897
